<?xml version="1.0" encoding="utf-8"?>
<!-- Generator: Adobe Illustrator 25.1.0, SVG Export Plug-In . SVG Version: 6.00 Build 0)  -->
<svg version="1.1" id="Layer_1" xmlns="http://www.w3.org/2000/svg" xmlns:xlink="http://www.w3.org/1999/xlink" x="0px" y="0px"
	 viewBox="0 0 308.8 75.13" style="enable-background:new 0 0 308.8 75.13;" xml:space="preserve">
<style type="text/css">
	.st0{fill:#FFFFFF;}
	.st1{fill-rule:evenodd;clip-rule:evenodd;fill:#FFFFFF;}
</style>
<g>
	<g>
		<g>
			<g>
				<path class="st0" d="M38.57,4.96c17.92,0,32.4,14.49,32.4,32.43c0,17-13.06,30.96-29.64,32.31c-0.91,0.17-1.85,0.17-2.76,0.17
					c-2.43,0-4.78-0.24-7.03-0.76C16.96,65.85,6.07,52.86,6.07,37.39C6.07,19.45,20.65,4.96,38.57,4.96 M38.57,3.3
					C19.73,3.3,4.4,18.6,4.4,37.39c0,15.82,11.26,29.86,26.76,33.35c2.34,0.51,4.83,0.77,7.4,0.77c1.01,0,2.04,0,3.05-0.15
					c17.33-1.41,31.03-16.32,31.03-33.97C72.64,18.6,57.35,3.3,38.57,3.3L38.57,3.3z"/>
			</g>
			<g>
				<path class="st0" d="M42.25,30.58c0.5-0.59,1.5-1.01,2.93-1.01c1.33,0,2.93,0.2,4.43,0.62l1.26-6.81
					c-2.59-0.91-5.27-1.16-8.04-1.16c-2.77,0-4.95,0.42-6.7,1.44c-1.76,0.97-2.93,2.07-3.6,3.68c-0.67,1.44-1.01,3.84-1.01,6.87
					v2.68h-5.37v7.77h5.37V69.1c2.25,0.51,4.61,0.76,7.03,0.76c0.91,0,1.85,0,2.76-0.17V44.65h7.12v-7.77h-7.12v-2.51
					C41.33,32.44,41.58,31.26,42.25,30.58z"/>
			</g>
			<g>
				<path class="st0" d="M115.43,4.9c17.92,0,32.46,14.52,32.46,32.46s-14.54,32.46-32.46,32.46c-17.92,0-32.44-14.52-32.44-32.46
					S97.51,4.9,115.43,4.9 M115.43,3.23c-18.81,0-34.11,15.31-34.11,34.12c0,18.81,15.31,34.12,34.11,34.12
					c18.82,0,34.14-15.31,34.14-34.12C149.57,18.54,134.25,3.23,115.43,3.23L115.43,3.23z"/>
			</g>
			<g>
				<path class="st1" d="M134.68,32.7c-2.15-8.98-9.9-15.11-19.25-15.23c-1.23,0.06-2.56,0.15-3.77,0.38
					C98.55,20.49,91.81,34.95,98.14,46.6c0.23,0.33,0.23,0.62,0.18,0.98c-0.92,3.02-1.77,6.13-2.59,9.18
					c-0.14,0.53-0.14,0.53,0.37,0.39c3.2-0.88,6.37-1.69,9.56-2.48c0.28-0.09,0.48-0.09,0.71,0.03c4.1,2.09,8.42,2.68,12.96,1.83
					C130.16,54.45,137.26,43.41,134.68,32.7z M118.21,53.37c-0.94,0.17-1.83,0.26-2.28,0.2c-3.49,0-6.29-0.79-8.9-2.28
					c-0.37-0.23-0.65-0.29-1.01-0.15c-1.78,0.42-3.52,0.91-5.29,1.36c-0.36,0.11-0.4,0.03-0.32-0.32c0.47-1.63,0.91-3.3,1.42-4.99
					c0.11-0.45,0.08-0.82-0.2-1.16c-3.58-5.84-3.42-12.99,0.58-18.41c4.17-5.57,9.89-7.88,16.69-6.41c6.71,1.41,11,5.76,12.53,12.45
					C133.6,42.8,127.43,51.88,118.21,53.37z"/>
				<path class="st1" d="M120.6,46.6c-0.69,0.08-1.38-0.06-2.05-0.26c-4.52-1.33-7.93-4.1-10.68-7.85c-1.02-1.39-2-2.89-2.29-4.66
					c-0.42-2.04,0.23-3.87,1.78-5.26c0.51-0.5,2.02-0.73,2.63-0.39c0.2,0.17,0.31,0.32,0.44,0.51c0.56,1.41,1.16,2.71,1.72,4.04
					c0.08,0.3,0.07,0.56-0.08,0.85c-0.3,0.62-0.76,1.1-1.21,1.63c-0.38,0.32-0.38,0.68-0.12,1.07c1.62,2.71,3.8,4.66,6.74,5.79
					c0.42,0.17,0.75,0.11,1.01-0.23c0.51-0.59,1.01-1.24,1.47-1.86c0.29-0.38,0.67-0.45,1.1-0.26c0.97,0.42,1.92,0.88,2.84,1.3
					c0.26,0.14,0.44,0.23,0.66,0.33c0.98,0.48,0.98,0.55,0.86,1.59c-0.13,2.06-1.71,3.1-3.52,3.61
					C121.42,46.67,121.03,46.67,120.6,46.6z"/>
			</g>
			<g>
				<path class="st0" d="M191.83,5.32c17.91,0,32.44,14.52,32.44,32.46c0,17.91-14.53,32.46-32.44,32.46
					c-17.94,0-32.46-14.55-32.46-32.46C159.37,19.84,173.89,5.32,191.83,5.32 M191.83,3.66c-18.82,0-34.13,15.31-34.13,34.12
					s15.31,34.12,34.13,34.12c18.8,0,34.1-15.31,34.1-34.12S210.63,3.66,191.83,3.66L191.83,3.66z"/>
			</g>
			<g>
				<path class="st1" d="M172.18,51c3.09,0.2,6.08-0.26,8.89-1.53c1.27-0.56,2.42-1.24,3.57-2.15c-1.35-0.03-2.57-0.36-3.69-0.92
					c-1.9-0.97-3.25-2.5-4.07-4.55c-0.18-0.45-0.18-0.45,0.32-0.42c1.36,0.13,2.36,0.11,3.13-0.2c-0.74-0.26-1.44-0.39-2.01-0.77
					c-2.84-1.57-4.36-4.01-4.61-7.28c-0.03-0.38,0.08-0.42,0.42-0.26c1,0.56,2.09,0.79,3.34,0.91c-0.54-0.48-1.01-0.88-1.44-1.3
					c-2.36-2.54-2.92-6.56-1.35-9.66c0.21-0.42,0.29-0.42,0.58-0.09c3.98,4.58,8.92,7.35,14.88,8.3c0.61,0.12,1.27,0.12,1.89,0.26
					c0.42,0.06,0.47-0.14,0.41-0.45c-0.62-3.59,1.06-7.14,4.24-8.92c3.24-1.89,7.44-1.3,10.04,1.24c0.3,0.26,0.59,0.32,0.94,0.23
					c1.6-0.36,3.1-0.95,4.51-1.77c0.12-0.03,0.21-0.09,0.36-0.23c-0.61,2.03-1.82,3.52-3.6,4.72c1.65-0.15,3.13-0.65,4.6-1.19
					c0.03,0.2-0.12,0.32-0.21,0.48c-1,1.36-2.16,2.57-3.54,3.61c-0.26,0.2-0.32,0.36-0.32,0.68c0.11,6.26-1.89,11.83-5.88,16.67
					c-3.75,4.4-8.55,7.08-14.25,7.99c-6.05,0.94-11.74-0.06-16.97-3.3C172.31,51.03,172.23,51,172.18,51z"/>
			</g>
			<g>
				<path class="st0" d="M270.28,5.13c17.94,0,32.46,14.55,32.46,32.46c0,17.94-14.52,32.46-32.46,32.46
					c-17.91,0-32.44-14.52-32.44-32.46C237.84,19.68,252.37,5.13,270.28,5.13 M270.28,3.46c-18.81,0-34.1,15.31-34.1,34.12
					c0,18.82,15.29,34.12,34.1,34.12c18.82,0,34.12-15.3,34.12-34.12C304.4,18.77,289.1,3.46,270.28,3.46L270.28,3.46z"/>
			</g>
			<g>
				<path class="st1" d="M283.2,20.07c-8.59,0-17.21,0-25.8,0c-3.07,0-4.66,1.63-4.66,4.69c0,4.27,0,8.53,0,12.83
					c0,4.27,0,8.64,0,12.93c0,2.96,1.63,4.58,4.51,4.58c8.68,0,17.3,0,25.95,0c3,0,4.64-1.62,4.64-4.61c0-8.64,0-17.2,0-25.83
					C287.84,21.7,286.19,20.07,283.2,20.07z M280.35,24.05c3.48,0,3.48,0,3.48,3.48c0,3.39,0,3.39-3.42,3.39
					c-3.45,0-3.45,0-3.45-3.45C276.97,24.05,276.97,24.05,280.35,24.05z M270.31,30.78c3.66,0,6.81,3.16,6.74,6.81
					c-0.03,3.75-3.15,6.84-6.87,6.78c-3.69-0.06-6.81-3.19-6.72-6.84C263.57,33.83,266.65,30.78,270.31,30.78z M283.83,49.05
					c-0.03,1.63-0.45,2.09-2.09,2.09c-3.83,0-7.65,0-11.48,0c-3.8,0-7.62,0-11.45,0c-1.6,0-2.06-0.45-2.06-2.09
					c0-4.23,0.02-8.53-0.06-12.79c0-1.21,0.33-1.47,1.45-1.44c1.6,0.14,1.63,0.06,1.45,1.63c-0.62,5.4,3.13,10.68,8.47,11.72
					c5.51,1.04,11.01-2.25,12.52-7.53c0.45-1.65,0.59-3.42,0.24-5.04c-0.12-0.62,0.03-0.73,0.57-0.73c2.42-0.2,2.42-0.23,2.42,2.28
					C283.83,41.06,283.83,45.07,283.83,49.05z"/>
			</g>
		</g>
	</g>
</g>
</svg>
